<mxfile host="app.diagrams.net" modified="2023-10-10T12:59:45.804Z" agent="Mozilla/5.0 (Windows NT 10.0; Win64; x64) AppleWebKit/537.36 (KHTML, like Gecko) Chrome/117.0.0.0 Safari/537.36" etag="V2G56ScHgmPG_zKkprsM" version="22.0.4" type="github">
  <diagram name="第 1 页" id="0DYLWyX5WjLoP0oHaxIj">
    <mxGraphModel dx="2357" dy="890" grid="1" gridSize="10" guides="1" tooltips="1" connect="1" arrows="1" fold="1" page="1" pageScale="1" pageWidth="827" pageHeight="1169" math="0" shadow="0">
      <root>
        <mxCell id="0" />
        <mxCell id="1" parent="0" />
        <mxCell id="AE5ZFtnx0VI7tvl8tYGL-7" value="" style="edgeStyle=orthogonalEdgeStyle;rounded=0;orthogonalLoop=1;jettySize=auto;html=1;" edge="1" parent="1" source="AE5ZFtnx0VI7tvl8tYGL-1" target="AE5ZFtnx0VI7tvl8tYGL-6">
          <mxGeometry relative="1" as="geometry" />
        </mxCell>
        <mxCell id="AE5ZFtnx0VI7tvl8tYGL-1" value="&lt;font style=&quot;font-size: 16px;&quot;&gt;学生本人：自查自己书写的部分&lt;br&gt;（《综合材料》P5-6、入党申请书、思想汇报、自传、转正申请书等）&lt;/font&gt;" style="rounded=0;whiteSpace=wrap;html=1;fillColor=#dae8fc;strokeColor=#6c8ebf;" vertex="1" parent="1">
          <mxGeometry x="240" y="30" width="380" height="80" as="geometry" />
        </mxCell>
        <mxCell id="AE5ZFtnx0VI7tvl8tYGL-11" value="" style="edgeStyle=orthogonalEdgeStyle;rounded=0;orthogonalLoop=1;jettySize=auto;html=1;" edge="1" parent="1" source="AE5ZFtnx0VI7tvl8tYGL-6" target="AE5ZFtnx0VI7tvl8tYGL-10">
          <mxGeometry relative="1" as="geometry" />
        </mxCell>
        <mxCell id="AE5ZFtnx0VI7tvl8tYGL-6" value="&lt;span style=&quot;font-size: 16px;&quot;&gt;学生本人：根据通知及时主动的提交给党支部书记&lt;/span&gt;" style="rounded=0;whiteSpace=wrap;html=1;fillColor=#dae8fc;strokeColor=#6c8ebf;" vertex="1" parent="1">
          <mxGeometry x="300" y="150" width="260" height="70" as="geometry" />
        </mxCell>
        <mxCell id="AE5ZFtnx0VI7tvl8tYGL-16" value="" style="edgeStyle=orthogonalEdgeStyle;rounded=0;orthogonalLoop=1;jettySize=auto;html=1;" edge="1" parent="1" source="AE5ZFtnx0VI7tvl8tYGL-10" target="AE5ZFtnx0VI7tvl8tYGL-14">
          <mxGeometry relative="1" as="geometry" />
        </mxCell>
        <mxCell id="AE5ZFtnx0VI7tvl8tYGL-10" value="&lt;span style=&quot;font-size: 16px;&quot;&gt;党支部书记：逐一收集学生材料&lt;/span&gt;" style="rounded=0;whiteSpace=wrap;html=1;fillColor=#d5e8d4;strokeColor=#82b366;" vertex="1" parent="1">
          <mxGeometry x="300" y="250" width="260" height="70" as="geometry" />
        </mxCell>
        <mxCell id="AE5ZFtnx0VI7tvl8tYGL-55" style="edgeStyle=orthogonalEdgeStyle;rounded=0;orthogonalLoop=1;jettySize=auto;html=1;exitX=0;exitY=0.5;exitDx=0;exitDy=0;entryX=0.5;entryY=0;entryDx=0;entryDy=0;" edge="1" parent="1" source="AE5ZFtnx0VI7tvl8tYGL-14" target="AE5ZFtnx0VI7tvl8tYGL-49">
          <mxGeometry relative="1" as="geometry">
            <mxPoint x="60" y="430" as="targetPoint" />
            <Array as="points">
              <mxPoint x="105" y="390" />
            </Array>
          </mxGeometry>
        </mxCell>
        <mxCell id="AE5ZFtnx0VI7tvl8tYGL-91" value="" style="edgeStyle=orthogonalEdgeStyle;rounded=0;orthogonalLoop=1;jettySize=auto;html=1;" edge="1" parent="1" source="AE5ZFtnx0VI7tvl8tYGL-14" target="AE5ZFtnx0VI7tvl8tYGL-31">
          <mxGeometry relative="1" as="geometry" />
        </mxCell>
        <mxCell id="AE5ZFtnx0VI7tvl8tYGL-14" value="&lt;font style=&quot;font-size: 16px;&quot;&gt;党支部书记：对照清单逐本逐条检查&lt;/font&gt;" style="rhombus;whiteSpace=wrap;html=1;fillColor=#d5e8d4;strokeColor=#82b366;rounded=0;" vertex="1" parent="1">
          <mxGeometry x="270" y="350" width="320" height="80" as="geometry" />
        </mxCell>
        <mxCell id="AE5ZFtnx0VI7tvl8tYGL-30" value="&lt;font style=&quot;font-size: 16px;&quot;&gt;若没有问题&lt;/font&gt;" style="text;html=1;strokeColor=none;fillColor=none;align=center;verticalAlign=middle;whiteSpace=wrap;rounded=0;" vertex="1" parent="1">
          <mxGeometry x="440" y="440" width="100" height="30" as="geometry" />
        </mxCell>
        <mxCell id="AE5ZFtnx0VI7tvl8tYGL-93" value="" style="edgeStyle=orthogonalEdgeStyle;rounded=0;orthogonalLoop=1;jettySize=auto;html=1;" edge="1" parent="1" source="AE5ZFtnx0VI7tvl8tYGL-31" target="AE5ZFtnx0VI7tvl8tYGL-33">
          <mxGeometry relative="1" as="geometry" />
        </mxCell>
        <mxCell id="AE5ZFtnx0VI7tvl8tYGL-31" value="&lt;font style=&quot;font-size: 16px;&quot;&gt;党支部书记：收集齐全部材料，提交给年级辅导员&lt;/font&gt;" style="whiteSpace=wrap;html=1;fillColor=#d5e8d4;strokeColor=#82b366;rounded=0;" vertex="1" parent="1">
          <mxGeometry x="332.5" y="470" width="195" height="60" as="geometry" />
        </mxCell>
        <mxCell id="AE5ZFtnx0VI7tvl8tYGL-94" value="" style="edgeStyle=orthogonalEdgeStyle;rounded=0;orthogonalLoop=1;jettySize=auto;html=1;" edge="1" parent="1" source="AE5ZFtnx0VI7tvl8tYGL-33" target="AE5ZFtnx0VI7tvl8tYGL-38">
          <mxGeometry relative="1" as="geometry" />
        </mxCell>
        <mxCell id="AE5ZFtnx0VI7tvl8tYGL-33" value="&lt;font style=&quot;font-size: 16px;&quot;&gt;党支部书记填写：发展学生党员材料检查清单，手写签字&lt;/font&gt;" style="whiteSpace=wrap;html=1;fillColor=#d5e8d4;strokeColor=#82b366;rounded=0;" vertex="1" parent="1">
          <mxGeometry x="322.5" y="565.5" width="215" height="70" as="geometry" />
        </mxCell>
        <mxCell id="AE5ZFtnx0VI7tvl8tYGL-44" value="" style="edgeStyle=orthogonalEdgeStyle;rounded=0;orthogonalLoop=1;jettySize=auto;html=1;" edge="1" parent="1" source="AE5ZFtnx0VI7tvl8tYGL-38" target="AE5ZFtnx0VI7tvl8tYGL-43">
          <mxGeometry relative="1" as="geometry" />
        </mxCell>
        <mxCell id="AE5ZFtnx0VI7tvl8tYGL-57" style="edgeStyle=orthogonalEdgeStyle;rounded=0;orthogonalLoop=1;jettySize=auto;html=1;exitX=1;exitY=0.5;exitDx=0;exitDy=0;" edge="1" parent="1" source="AE5ZFtnx0VI7tvl8tYGL-38">
          <mxGeometry relative="1" as="geometry">
            <mxPoint x="430" y="330" as="targetPoint" />
            <Array as="points">
              <mxPoint x="700" y="725" />
              <mxPoint x="700" y="330" />
            </Array>
          </mxGeometry>
        </mxCell>
        <mxCell id="AE5ZFtnx0VI7tvl8tYGL-38" value="&lt;font style=&quot;font-size: 16px;&quot;&gt;年级辅导员及党建助理：&lt;br&gt;根据检查清单&lt;/font&gt;" style="rhombus;whiteSpace=wrap;html=1;fillColor=#e1d5e7;strokeColor=#9673a6;rounded=0;" vertex="1" parent="1">
          <mxGeometry x="290" y="680" width="280" height="90" as="geometry" />
        </mxCell>
        <mxCell id="AE5ZFtnx0VI7tvl8tYGL-60" value="" style="edgeStyle=orthogonalEdgeStyle;rounded=0;orthogonalLoop=1;jettySize=auto;html=1;" edge="1" parent="1" source="AE5ZFtnx0VI7tvl8tYGL-43" target="AE5ZFtnx0VI7tvl8tYGL-59">
          <mxGeometry relative="1" as="geometry" />
        </mxCell>
        <mxCell id="AE5ZFtnx0VI7tvl8tYGL-43" value="&lt;font style=&quot;font-size: 16px;&quot;&gt;党建辅导员：&lt;/font&gt;" style="whiteSpace=wrap;html=1;fillColor=#e1d5e7;strokeColor=#9673a6;rounded=0;" vertex="1" parent="1">
          <mxGeometry x="335" y="805" width="190" height="70" as="geometry" />
        </mxCell>
        <mxCell id="AE5ZFtnx0VI7tvl8tYGL-45" value="&lt;font style=&quot;font-size: 16px;&quot;&gt;若没有问题&lt;/font&gt;" style="text;html=1;strokeColor=none;fillColor=none;align=center;verticalAlign=middle;whiteSpace=wrap;rounded=0;" vertex="1" parent="1">
          <mxGeometry x="430" y="770" width="100" height="30" as="geometry" />
        </mxCell>
        <mxCell id="AE5ZFtnx0VI7tvl8tYGL-76" value="" style="edgeStyle=orthogonalEdgeStyle;rounded=0;orthogonalLoop=1;jettySize=auto;html=1;" edge="1" parent="1" source="AE5ZFtnx0VI7tvl8tYGL-49" target="AE5ZFtnx0VI7tvl8tYGL-75">
          <mxGeometry relative="1" as="geometry" />
        </mxCell>
        <mxCell id="AE5ZFtnx0VI7tvl8tYGL-49" value="&lt;font style=&quot;font-size: 16px;&quot;&gt;&lt;font style=&quot;font-size: 16px;&quot;&gt;党支部书记：具体问题第一时间反馈给学生本人，返还材料修改，&lt;/font&gt;进行批评教育，并第一时间反馈给辅导员&lt;/font&gt;" style="whiteSpace=wrap;html=1;fillColor=#d5e8d4;strokeColor=#82b366;rounded=0;" vertex="1" parent="1">
          <mxGeometry x="-30" y="440" width="270" height="80" as="geometry" />
        </mxCell>
        <mxCell id="AE5ZFtnx0VI7tvl8tYGL-50" value="&lt;font style=&quot;font-size: 16px;&quot;&gt;若存在问题&lt;/font&gt;" style="text;html=1;strokeColor=none;fillColor=none;align=center;verticalAlign=middle;whiteSpace=wrap;rounded=0;" vertex="1" parent="1">
          <mxGeometry x="170" y="360" width="100" height="30" as="geometry" />
        </mxCell>
        <mxCell id="AE5ZFtnx0VI7tvl8tYGL-81" style="edgeStyle=orthogonalEdgeStyle;rounded=0;orthogonalLoop=1;jettySize=auto;html=1;exitX=0;exitY=0.5;exitDx=0;exitDy=0;" edge="1" parent="1" source="AE5ZFtnx0VI7tvl8tYGL-53">
          <mxGeometry relative="1" as="geometry">
            <mxPoint x="430" y="330" as="targetPoint" />
            <Array as="points">
              <mxPoint x="-90" y="820" />
              <mxPoint x="-90" y="330" />
            </Array>
          </mxGeometry>
        </mxCell>
        <mxCell id="AE5ZFtnx0VI7tvl8tYGL-53" value="&lt;font style=&quot;font-size: 16px;&quot;&gt;学生本人：及时修正问题，重新提交材料&lt;/font&gt;" style="rounded=0;whiteSpace=wrap;html=1;fillColor=#dae8fc;strokeColor=#6c8ebf;" vertex="1" parent="1">
          <mxGeometry x="20" y="787.5" width="170" height="65" as="geometry" />
        </mxCell>
        <mxCell id="AE5ZFtnx0VI7tvl8tYGL-58" value="&lt;font style=&quot;font-size: 16px;&quot;&gt;若存在问题&lt;/font&gt;" style="text;html=1;strokeColor=none;fillColor=none;align=center;verticalAlign=middle;whiteSpace=wrap;rounded=0;" vertex="1" parent="1">
          <mxGeometry x="560" y="695" width="100" height="30" as="geometry" />
        </mxCell>
        <mxCell id="AE5ZFtnx0VI7tvl8tYGL-62" value="" style="edgeStyle=orthogonalEdgeStyle;rounded=0;orthogonalLoop=1;jettySize=auto;html=1;" edge="1" parent="1" source="AE5ZFtnx0VI7tvl8tYGL-59" target="AE5ZFtnx0VI7tvl8tYGL-61">
          <mxGeometry relative="1" as="geometry" />
        </mxCell>
        <mxCell id="AE5ZFtnx0VI7tvl8tYGL-59" value="&lt;font style=&quot;font-size: 16px;&quot;&gt;送&lt;/font&gt;" style="whiteSpace=wrap;html=1;fillColor=#e1d5e7;strokeColor=#9673a6;rounded=0;" vertex="1" parent="1">
          <mxGeometry x="335" y="905" width="190" height="70" as="geometry" />
        </mxCell>
        <mxCell id="AE5ZFtnx0VI7tvl8tYGL-67" value="" style="edgeStyle=orthogonalEdgeStyle;rounded=0;orthogonalLoop=1;jettySize=auto;html=1;" edge="1" parent="1" source="AE5ZFtnx0VI7tvl8tYGL-61" target="AE5ZFtnx0VI7tvl8tYGL-65">
          <mxGeometry relative="1" as="geometry" />
        </mxCell>
        <mxCell id="AE5ZFtnx0VI7tvl8tYGL-61" value="&lt;font style=&quot;font-size: 16px;&quot;&gt;名单，送到组织部审核&lt;/font&gt;" style="whiteSpace=wrap;html=1;fillColor=#e1d5e7;strokeColor=#9673a6;rounded=0;" vertex="1" parent="1">
          <mxGeometry x="335" y="1005" width="190" height="70" as="geometry" />
        </mxCell>
        <mxCell id="AE5ZFtnx0VI7tvl8tYGL-69" value="" style="edgeStyle=orthogonalEdgeStyle;rounded=0;orthogonalLoop=1;jettySize=auto;html=1;" edge="1" parent="1" source="AE5ZFtnx0VI7tvl8tYGL-65" target="AE5ZFtnx0VI7tvl8tYGL-68">
          <mxGeometry relative="1" as="geometry" />
        </mxCell>
        <mxCell id="AE5ZFtnx0VI7tvl8tYGL-73" style="edgeStyle=orthogonalEdgeStyle;rounded=0;orthogonalLoop=1;jettySize=auto;html=1;exitX=1;exitY=0.5;exitDx=0;exitDy=0;" edge="1" parent="1" source="AE5ZFtnx0VI7tvl8tYGL-65">
          <mxGeometry relative="1" as="geometry">
            <mxPoint x="430" y="785" as="targetPoint" />
            <Array as="points">
              <mxPoint x="270" y="1138" />
              <mxPoint x="270" y="785" />
              <mxPoint x="430" y="785" />
            </Array>
          </mxGeometry>
        </mxCell>
        <mxCell id="AE5ZFtnx0VI7tvl8tYGL-65" value="&lt;font style=&quot;font-size: 16px;&quot;&gt;组织部：反馈结果&lt;/font&gt;" style="rhombus;whiteSpace=wrap;html=1;fillColor=#f8cecc;strokeColor=#b85450;rounded=0;" vertex="1" parent="1">
          <mxGeometry x="315" y="1095" width="230" height="85" as="geometry" />
        </mxCell>
        <mxCell id="AE5ZFtnx0VI7tvl8tYGL-71" value="" style="edgeStyle=orthogonalEdgeStyle;rounded=0;orthogonalLoop=1;jettySize=auto;html=1;" edge="1" parent="1" source="AE5ZFtnx0VI7tvl8tYGL-68" target="AE5ZFtnx0VI7tvl8tYGL-70">
          <mxGeometry relative="1" as="geometry" />
        </mxCell>
        <mxCell id="AE5ZFtnx0VI7tvl8tYGL-68" value="&lt;font style=&quot;font-size: 16px;&quot;&gt;通知支部来&lt;/font&gt;" style="whiteSpace=wrap;html=1;fillColor=#f8cecc;strokeColor=#b85450;rounded=0;" vertex="1" parent="1">
          <mxGeometry x="370" y="1205" width="120" height="60" as="geometry" />
        </mxCell>
        <mxCell id="AE5ZFtnx0VI7tvl8tYGL-70" value="&lt;font style=&quot;font-size: 16px;&quot;&gt;归档档案馆&lt;/font&gt;" style="whiteSpace=wrap;html=1;fillColor=#f8cecc;strokeColor=#b85450;rounded=0;" vertex="1" parent="1">
          <mxGeometry x="370" y="1285" width="120" height="60" as="geometry" />
        </mxCell>
        <mxCell id="AE5ZFtnx0VI7tvl8tYGL-72" value="&lt;span style=&quot;font-size: 16px;&quot;&gt;合格&lt;/span&gt;" style="text;html=1;strokeColor=none;fillColor=none;align=center;verticalAlign=middle;whiteSpace=wrap;rounded=0;" vertex="1" parent="1">
          <mxGeometry x="407.5" y="1175" width="100" height="30" as="geometry" />
        </mxCell>
        <mxCell id="AE5ZFtnx0VI7tvl8tYGL-74" value="&lt;span style=&quot;font-size: 16px;&quot;&gt;不合格&lt;/span&gt;" style="text;html=1;strokeColor=none;fillColor=none;align=center;verticalAlign=middle;whiteSpace=wrap;rounded=0;" vertex="1" parent="1">
          <mxGeometry x="250" y="1104" width="100" height="30" as="geometry" />
        </mxCell>
        <mxCell id="AE5ZFtnx0VI7tvl8tYGL-83" value="" style="edgeStyle=orthogonalEdgeStyle;rounded=0;orthogonalLoop=1;jettySize=auto;html=1;" edge="1" parent="1" source="AE5ZFtnx0VI7tvl8tYGL-75" target="AE5ZFtnx0VI7tvl8tYGL-82">
          <mxGeometry relative="1" as="geometry" />
        </mxCell>
        <mxCell id="AE5ZFtnx0VI7tvl8tYGL-87" style="edgeStyle=orthogonalEdgeStyle;rounded=0;orthogonalLoop=1;jettySize=auto;html=1;exitX=0;exitY=0.5;exitDx=0;exitDy=0;" edge="1" parent="1" source="AE5ZFtnx0VI7tvl8tYGL-75">
          <mxGeometry relative="1" as="geometry">
            <mxPoint x="105" y="760" as="targetPoint" />
            <Array as="points">
              <mxPoint x="-45" y="573" />
              <mxPoint x="-45" y="760" />
            </Array>
          </mxGeometry>
        </mxCell>
        <mxCell id="AE5ZFtnx0VI7tvl8tYGL-75" value="&lt;font style=&quot;font-size: 16px;&quot;&gt;学生修改态度&lt;/font&gt;" style="rhombus;whiteSpace=wrap;html=1;fillColor=#dae8fc;strokeColor=#6c8ebf;rounded=0;" vertex="1" parent="1">
          <mxGeometry x="-5" y="540" width="220" height="65.5" as="geometry" />
        </mxCell>
        <mxCell id="AE5ZFtnx0VI7tvl8tYGL-79" value="&lt;font style=&quot;font-size: 16px;&quot;&gt;端正&lt;/font&gt;" style="text;html=1;strokeColor=none;fillColor=none;align=center;verticalAlign=middle;whiteSpace=wrap;rounded=0;" vertex="1" parent="1">
          <mxGeometry x="-65" y="540" width="100" height="30" as="geometry" />
        </mxCell>
        <mxCell id="AE5ZFtnx0VI7tvl8tYGL-86" style="edgeStyle=orthogonalEdgeStyle;rounded=0;orthogonalLoop=1;jettySize=auto;html=1;exitX=0.5;exitY=1;exitDx=0;exitDy=0;entryX=0.5;entryY=0;entryDx=0;entryDy=0;" edge="1" parent="1" source="AE5ZFtnx0VI7tvl8tYGL-82" target="AE5ZFtnx0VI7tvl8tYGL-53">
          <mxGeometry relative="1" as="geometry" />
        </mxCell>
        <mxCell id="AE5ZFtnx0VI7tvl8tYGL-82" value="&lt;font style=&quot;font-size: 16px;&quot;&gt;党支部书记：进行批评教育，并第一时间反馈给辅导员&lt;/font&gt;" style="whiteSpace=wrap;html=1;fillColor=#d5e8d4;strokeColor=#82b366;rounded=0;" vertex="1" parent="1">
          <mxGeometry x="25" y="658.25" width="160" height="71.75" as="geometry" />
        </mxCell>
        <mxCell id="AE5ZFtnx0VI7tvl8tYGL-85" value="&lt;font style=&quot;font-size: 16px;&quot;&gt;不端正&lt;/font&gt;" style="text;html=1;strokeColor=none;fillColor=none;align=center;verticalAlign=middle;whiteSpace=wrap;rounded=0;" vertex="1" parent="1">
          <mxGeometry x="85" y="605.5" width="100" height="30" as="geometry" />
        </mxCell>
      </root>
    </mxGraphModel>
  </diagram>
</mxfile>
